<mxfile host="app.diagrams.net" modified="2024-01-27T17:46:23.127Z" agent="Mozilla/5.0 (Macintosh; Intel Mac OS X 10_15_7) AppleWebKit/537.36 (KHTML, like Gecko) Chrome/120.0.0.0 Safari/537.36" etag="lBAXEU2zkDvFvfAAu88j" version="21.6.6" type="device">
  <diagram name="Page-1" id="6-JOaMcYmYwcZkKpE_aN">
    <mxGraphModel dx="2271" dy="1498" grid="1" gridSize="10" guides="1" tooltips="1" connect="1" arrows="1" fold="1" page="1" pageScale="1" pageWidth="1169" pageHeight="827" math="0" shadow="0">
      <root>
        <mxCell id="0" />
        <mxCell id="1" parent="0" />
        <mxCell id="MXst-7ZP1u3HBlRvQ03L-18" value="" style="group" vertex="1" connectable="0" parent="1">
          <mxGeometry x="150" width="800" height="580" as="geometry" />
        </mxCell>
        <mxCell id="MXst-7ZP1u3HBlRvQ03L-9" value="Server contents" style="points=[[0,0],[0.25,0],[0.5,0],[0.75,0],[1,0],[1,0.25],[1,0.5],[1,0.75],[1,1],[0.75,1],[0.5,1],[0.25,1],[0,1],[0,0.75],[0,0.5],[0,0.25]];outlineConnect=0;gradientColor=none;html=1;whiteSpace=wrap;fontSize=12;fontStyle=0;container=1;pointerEvents=0;collapsible=0;recursiveResize=0;shape=mxgraph.aws4.group;grIcon=mxgraph.aws4.group_on_premise;strokeColor=#5A6C86;fillColor=none;verticalAlign=top;align=left;spacingLeft=30;fontColor=#5A6C86;dashed=0;&#xa;hey;movable=0;resizable=0;rotatable=0;deletable=0;editable=0;locked=1;connectable=0;" vertex="1" parent="MXst-7ZP1u3HBlRvQ03L-18">
          <mxGeometry y="90" width="800" height="490" as="geometry" />
        </mxCell>
        <mxCell id="MXst-7ZP1u3HBlRvQ03L-17" value="" style="group;movable=0;resizable=0;rotatable=0;deletable=0;editable=0;locked=1;connectable=0;" vertex="1" connectable="0" parent="MXst-7ZP1u3HBlRvQ03L-18">
          <mxGeometry width="80" height="100" as="geometry" />
        </mxCell>
        <mxCell id="MXst-7ZP1u3HBlRvQ03L-14" value="" style="image;html=1;image=img/lib/clip_art/computers/Server_128x128.png;movable=1;resizable=1;rotatable=1;deletable=1;editable=1;locked=0;connectable=1;" vertex="1" parent="MXst-7ZP1u3HBlRvQ03L-17">
          <mxGeometry y="20" width="80" height="80" as="geometry" />
        </mxCell>
        <mxCell id="MXst-7ZP1u3HBlRvQ03L-15" value="&lt;b&gt;&lt;u&gt;&lt;font style=&quot;font-size: 14px;&quot;&gt;SERVER&lt;/font&gt;&lt;/u&gt;&lt;/b&gt;" style="text;strokeColor=none;align=center;fillColor=none;html=1;verticalAlign=middle;whiteSpace=wrap;rounded=0;movable=1;resizable=1;rotatable=1;deletable=1;editable=1;locked=0;connectable=1;" vertex="1" parent="MXst-7ZP1u3HBlRvQ03L-17">
          <mxGeometry width="80" height="40" as="geometry" />
        </mxCell>
        <mxCell id="MXst-7ZP1u3HBlRvQ03L-20" value="&lt;font style=&quot;font-size: 18px;&quot;&gt;application server&lt;/font&gt;" style="text;strokeColor=none;align=center;fillColor=none;html=1;verticalAlign=middle;whiteSpace=wrap;rounded=0;" vertex="1" parent="MXst-7ZP1u3HBlRvQ03L-18">
          <mxGeometry x="651" y="229.76999999999998" width="120" height="40" as="geometry" />
        </mxCell>
        <mxCell id="MXst-7ZP1u3HBlRvQ03L-19" value="" style="sketch=0;aspect=fixed;pointerEvents=1;shadow=0;dashed=0;html=1;strokeColor=none;labelPosition=center;verticalLabelPosition=bottom;verticalAlign=top;align=center;fillColor=#00188D;shape=mxgraph.mscae.enterprise.application_server" vertex="1" parent="MXst-7ZP1u3HBlRvQ03L-18">
          <mxGeometry x="661" y="109.99999999999999" width="103" height="119.77" as="geometry" />
        </mxCell>
        <mxCell id="MXst-7ZP1u3HBlRvQ03L-73" value="&lt;font style=&quot;font-size: 36px;&quot;&gt;8.8.8.8&lt;/font&gt;" style="rounded=1;whiteSpace=wrap;html=1;" vertex="1" parent="MXst-7ZP1u3HBlRvQ03L-18">
          <mxGeometry x="130" y="30" width="500" height="60" as="geometry" />
        </mxCell>
        <mxCell id="MXst-7ZP1u3HBlRvQ03L-79" value="" style="group;movable=1;resizable=1;rotatable=1;deletable=1;editable=1;locked=0;connectable=1;" vertex="1" connectable="0" parent="MXst-7ZP1u3HBlRvQ03L-18">
          <mxGeometry x="190" y="110" width="120" height="167.5" as="geometry" />
        </mxCell>
        <object label="" id="MXst-7ZP1u3HBlRvQ03L-80">
          <mxCell style="image;aspect=fixed;perimeter=ellipsePerimeter;html=1;align=center;shadow=0;dashed=0;spacingTop=3;image=img/lib/active_directory/web_server.svg;movable=1;resizable=1;rotatable=1;deletable=1;editable=1;locked=0;connectable=1;" vertex="1" parent="MXst-7ZP1u3HBlRvQ03L-79">
            <mxGeometry x="10" width="110" height="137.5" as="geometry" />
          </mxCell>
        </object>
        <mxCell id="MXst-7ZP1u3HBlRvQ03L-81" value="&lt;font style=&quot;font-size: 18px;&quot;&gt;web server (Nginx)&lt;/font&gt;" style="text;strokeColor=none;align=center;fillColor=none;html=1;verticalAlign=middle;whiteSpace=wrap;rounded=0;movable=1;resizable=1;rotatable=1;deletable=1;editable=1;locked=0;connectable=1;" vertex="1" parent="MXst-7ZP1u3HBlRvQ03L-79">
          <mxGeometry y="137.5" width="120" height="30" as="geometry" />
        </mxCell>
        <mxCell id="MXst-7ZP1u3HBlRvQ03L-87" value="" style="group" vertex="1" connectable="0" parent="MXst-7ZP1u3HBlRvQ03L-18">
          <mxGeometry y="150" width="200" height="200" as="geometry" />
        </mxCell>
        <mxCell id="MXst-7ZP1u3HBlRvQ03L-85" value="" style="html=1;shadow=0;dashed=0;align=center;verticalAlign=middle;shape=mxgraph.arrows2.bendArrow;dy=15;dx=38;notch=0;arrowHead=55;rounded=1;" vertex="1" parent="MXst-7ZP1u3HBlRvQ03L-87">
          <mxGeometry width="200" height="200" as="geometry" />
        </mxCell>
        <mxCell id="MXst-7ZP1u3HBlRvQ03L-86" value="&lt;font style=&quot;font-size: 18px;&quot;&gt;HTML request&lt;/font&gt;" style="text;strokeColor=none;align=center;fillColor=none;html=1;verticalAlign=middle;whiteSpace=wrap;rounded=0;" vertex="1" parent="MXst-7ZP1u3HBlRvQ03L-87">
          <mxGeometry x="25" y="10" width="150" height="30" as="geometry" />
        </mxCell>
        <mxCell id="MXst-7ZP1u3HBlRvQ03L-91" value="" style="html=1;shadow=0;dashed=0;align=center;verticalAlign=middle;shape=mxgraph.arrows2.sharpArrow;dy1=0.67;dx1=18;dx2=18;notch=0;rotation=-210;" vertex="1" parent="MXst-7ZP1u3HBlRvQ03L-87">
          <mxGeometry x="25.000000000000004" y="130" width="151.06" height="60" as="geometry" />
        </mxCell>
        <mxCell id="MXst-7ZP1u3HBlRvQ03L-93" value="&lt;font style=&quot;font-size: 14px;&quot;&gt;Dynamic content&lt;/font&gt;" style="html=1;shadow=0;dashed=0;align=center;verticalAlign=middle;shape=mxgraph.arrows2.sharpArrow;dy1=0.67;dx1=18;dx2=18;notch=0;" vertex="1" parent="MXst-7ZP1u3HBlRvQ03L-18">
          <mxGeometry x="300" y="120" width="340" height="60" as="geometry" />
        </mxCell>
        <mxCell id="MXst-7ZP1u3HBlRvQ03L-94" value="&lt;font style=&quot;font-size: 18px;&quot;&gt;HTML response&lt;/font&gt;" style="shape=singleArrow;direction=west;whiteSpace=wrap;html=1;" vertex="1" parent="MXst-7ZP1u3HBlRvQ03L-18">
          <mxGeometry x="310" y="180" width="320" height="60" as="geometry" />
        </mxCell>
        <mxCell id="MXst-7ZP1u3HBlRvQ03L-98" value="" style="group" vertex="1" connectable="0" parent="MXst-7ZP1u3HBlRvQ03L-18">
          <mxGeometry x="612" y="414" width="200" height="160" as="geometry" />
        </mxCell>
        <mxCell id="MXst-7ZP1u3HBlRvQ03L-95" value="" style="outlineConnect=0;dashed=0;verticalLabelPosition=bottom;verticalAlign=top;align=center;html=1;shape=mxgraph.aws3.worker;fillColor=#D9A741;gradientColor=none;" vertex="1" parent="MXst-7ZP1u3HBlRvQ03L-98">
          <mxGeometry x="30" width="140" height="110" as="geometry" />
        </mxCell>
        <mxCell id="MXst-7ZP1u3HBlRvQ03L-96" value="&lt;font style=&quot;font-size: 18px;&quot;&gt;application files &lt;br&gt;(your code base)&lt;/font&gt;" style="text;strokeColor=none;align=center;fillColor=none;html=1;verticalAlign=middle;whiteSpace=wrap;rounded=0;" vertex="1" parent="MXst-7ZP1u3HBlRvQ03L-98">
          <mxGeometry y="100" width="200" height="60" as="geometry" />
        </mxCell>
        <mxCell id="MXst-7ZP1u3HBlRvQ03L-99" value="" style="shape=flexArrow;endArrow=classic;html=1;rounded=0;entryX=0.5;entryY=1;entryDx=0;entryDy=0;" edge="1" parent="MXst-7ZP1u3HBlRvQ03L-18" source="MXst-7ZP1u3HBlRvQ03L-95" target="MXst-7ZP1u3HBlRvQ03L-20">
          <mxGeometry width="50" height="50" relative="1" as="geometry">
            <mxPoint x="70" y="280" as="sourcePoint" />
            <mxPoint x="120" y="230" as="targetPoint" />
          </mxGeometry>
        </mxCell>
        <mxCell id="MXst-7ZP1u3HBlRvQ03L-100" value="&lt;font style=&quot;font-size: 16px;&quot;&gt;Application logic&lt;/font&gt;" style="text;strokeColor=none;align=center;fillColor=none;html=1;verticalAlign=middle;whiteSpace=wrap;rounded=0;rotation=-90;" vertex="1" parent="MXst-7ZP1u3HBlRvQ03L-18">
          <mxGeometry x="612" y="340" width="160" height="30" as="geometry" />
        </mxCell>
        <mxCell id="MXst-7ZP1u3HBlRvQ03L-24" value="" style="group" vertex="1" connectable="0" parent="MXst-7ZP1u3HBlRvQ03L-18">
          <mxGeometry x="210" y="380" width="100" height="150" as="geometry" />
        </mxCell>
        <mxCell id="MXst-7ZP1u3HBlRvQ03L-22" value="" style="image;sketch=0;aspect=fixed;html=1;points=[];align=center;fontSize=12;image=img/lib/mscae/Azure_Database_for_MySQL_servers.svg;" vertex="1" parent="MXst-7ZP1u3HBlRvQ03L-24">
          <mxGeometry width="90" height="118.42105263157895" as="geometry" />
        </mxCell>
        <mxCell id="MXst-7ZP1u3HBlRvQ03L-23" value="database (MySQL)" style="text;strokeColor=none;align=center;fillColor=none;html=1;verticalAlign=middle;whiteSpace=wrap;rounded=0;" vertex="1" parent="MXst-7ZP1u3HBlRvQ03L-24">
          <mxGeometry y="118.42105263157895" width="100" height="31.578947368421055" as="geometry" />
        </mxCell>
        <mxCell id="MXst-7ZP1u3HBlRvQ03L-101" value="" style="shape=flexArrow;endArrow=classic;html=1;rounded=0;entryX=0.901;entryY=-0.001;entryDx=0;entryDy=0;entryPerimeter=0;" edge="1" parent="MXst-7ZP1u3HBlRvQ03L-18" target="MXst-7ZP1u3HBlRvQ03L-22">
          <mxGeometry width="50" height="50" relative="1" as="geometry">
            <mxPoint x="640" y="230" as="sourcePoint" />
            <mxPoint x="120" y="230" as="targetPoint" />
            <Array as="points">
              <mxPoint x="470" y="280" />
            </Array>
          </mxGeometry>
        </mxCell>
        <mxCell id="MXst-7ZP1u3HBlRvQ03L-103" value="&lt;font style=&quot;font-size: 18px;&quot;&gt;Database Query&lt;/font&gt;" style="text;strokeColor=none;align=center;fillColor=none;html=1;verticalAlign=middle;whiteSpace=wrap;rounded=0;rotation=-30;" vertex="1" parent="MXst-7ZP1u3HBlRvQ03L-18">
          <mxGeometry x="280" y="300" width="180" height="30" as="geometry" />
        </mxCell>
        <mxCell id="MXst-7ZP1u3HBlRvQ03L-105" value="&lt;font style=&quot;font-size: 18px;&quot;&gt;Data&lt;/font&gt;" style="text;strokeColor=none;align=center;fillColor=none;html=1;verticalAlign=middle;whiteSpace=wrap;rounded=0;rotation=-30;" vertex="1" parent="MXst-7ZP1u3HBlRvQ03L-18">
          <mxGeometry x="390" y="380" width="60" height="30" as="geometry" />
        </mxCell>
        <mxCell id="MXst-7ZP1u3HBlRvQ03L-59" value="&lt;font style=&quot;font-size: 14px;&quot;&gt;server&#39;s IP address to the user&lt;/font&gt;" style="rounded=0;whiteSpace=wrap;html=1;rotation=-90;" vertex="1" parent="1">
          <mxGeometry x="-590" y="210" width="230" height="30" as="geometry" />
        </mxCell>
        <mxCell id="MXst-7ZP1u3HBlRvQ03L-60" value="DNS Server" style="swimlane;whiteSpace=wrap;html=1;" vertex="1" parent="1">
          <mxGeometry x="-410" width="510" height="210" as="geometry" />
        </mxCell>
        <mxCell id="MXst-7ZP1u3HBlRvQ03L-65" style="edgeStyle=orthogonalEdgeStyle;rounded=0;orthogonalLoop=1;jettySize=auto;html=1;exitX=0.665;exitY=0.5;exitDx=0;exitDy=0;exitPerimeter=0;entryX=0;entryY=0.5;entryDx=0;entryDy=0;" edge="1" parent="MXst-7ZP1u3HBlRvQ03L-60" source="MXst-7ZP1u3HBlRvQ03L-30" target="MXst-7ZP1u3HBlRvQ03L-35">
          <mxGeometry relative="1" as="geometry">
            <Array as="points">
              <mxPoint x="58" y="90" />
              <mxPoint x="111" y="90" />
              <mxPoint x="111" y="95" />
            </Array>
          </mxGeometry>
        </mxCell>
        <mxCell id="MXst-7ZP1u3HBlRvQ03L-38" value="A record" style="swimlane;fontStyle=0;childLayout=stackLayout;horizontal=1;startSize=30;horizontalStack=0;resizeParent=1;resizeParentMax=0;resizeLast=0;collapsible=1;marginBottom=0;whiteSpace=wrap;html=1;" vertex="1" parent="MXst-7ZP1u3HBlRvQ03L-60">
          <mxGeometry x="330" y="50" width="140" height="120" as="geometry" />
        </mxCell>
        <mxCell id="MXst-7ZP1u3HBlRvQ03L-39" value="foobar.com" style="text;strokeColor=none;fillColor=none;align=left;verticalAlign=middle;spacingLeft=4;spacingRight=4;overflow=hidden;points=[[0,0.5],[1,0.5]];portConstraint=eastwest;rotatable=0;whiteSpace=wrap;html=1;" vertex="1" parent="MXst-7ZP1u3HBlRvQ03L-38">
          <mxGeometry y="30" width="140" height="30" as="geometry" />
        </mxCell>
        <mxCell id="MXst-7ZP1u3HBlRvQ03L-40" value="refers to my server IP address" style="text;strokeColor=none;fillColor=none;align=left;verticalAlign=middle;spacingLeft=4;spacingRight=4;overflow=hidden;points=[[0,0.5],[1,0.5]];portConstraint=eastwest;rotatable=0;whiteSpace=wrap;html=1;" vertex="1" parent="MXst-7ZP1u3HBlRvQ03L-38">
          <mxGeometry y="60" width="140" height="30" as="geometry" />
        </mxCell>
        <mxCell id="MXst-7ZP1u3HBlRvQ03L-41" value="8.8.8.8" style="text;strokeColor=none;fillColor=none;align=left;verticalAlign=middle;spacingLeft=4;spacingRight=4;overflow=hidden;points=[[0,0.5],[1,0.5]];portConstraint=eastwest;rotatable=0;whiteSpace=wrap;html=1;" vertex="1" parent="MXst-7ZP1u3HBlRvQ03L-38">
          <mxGeometry y="90" width="140" height="30" as="geometry" />
        </mxCell>
        <mxCell id="MXst-7ZP1u3HBlRvQ03L-34" value="CNAME record" style="swimlane;fontStyle=0;childLayout=stackLayout;horizontal=1;startSize=30;horizontalStack=0;resizeParent=1;resizeParentMax=0;resizeLast=0;collapsible=1;marginBottom=0;whiteSpace=wrap;html=1;" vertex="1" parent="MXst-7ZP1u3HBlRvQ03L-60">
          <mxGeometry x="140" y="50" width="140" height="120" as="geometry" />
        </mxCell>
        <mxCell id="MXst-7ZP1u3HBlRvQ03L-35" value="www.foobar.com&lt;br&gt;" style="text;strokeColor=none;fillColor=none;align=left;verticalAlign=middle;spacingLeft=4;spacingRight=4;overflow=hidden;points=[[0,0.5],[1,0.5]];portConstraint=eastwest;rotatable=0;whiteSpace=wrap;html=1;" vertex="1" parent="MXst-7ZP1u3HBlRvQ03L-34">
          <mxGeometry y="30" width="140" height="30" as="geometry" />
        </mxCell>
        <mxCell id="MXst-7ZP1u3HBlRvQ03L-36" value="refers to" style="text;strokeColor=none;fillColor=none;align=left;verticalAlign=middle;spacingLeft=4;spacingRight=4;overflow=hidden;points=[[0,0.5],[1,0.5]];portConstraint=eastwest;rotatable=0;whiteSpace=wrap;html=1;" vertex="1" parent="MXst-7ZP1u3HBlRvQ03L-34">
          <mxGeometry y="60" width="140" height="30" as="geometry" />
        </mxCell>
        <mxCell id="MXst-7ZP1u3HBlRvQ03L-37" value="foobar.com&lt;br&gt;" style="text;strokeColor=none;fillColor=none;align=left;verticalAlign=middle;spacingLeft=4;spacingRight=4;overflow=hidden;points=[[0,0.5],[1,0.5]];portConstraint=eastwest;rotatable=0;whiteSpace=wrap;html=1;" vertex="1" parent="MXst-7ZP1u3HBlRvQ03L-34">
          <mxGeometry y="90" width="140" height="30" as="geometry" />
        </mxCell>
        <mxCell id="MXst-7ZP1u3HBlRvQ03L-66" style="edgeStyle=orthogonalEdgeStyle;rounded=0;orthogonalLoop=1;jettySize=auto;html=1;exitX=1;exitY=0.5;exitDx=0;exitDy=0;entryX=0;entryY=0.5;entryDx=0;entryDy=0;" edge="1" parent="MXst-7ZP1u3HBlRvQ03L-60" source="MXst-7ZP1u3HBlRvQ03L-35" target="MXst-7ZP1u3HBlRvQ03L-39">
          <mxGeometry relative="1" as="geometry" />
        </mxCell>
        <mxCell id="MXst-7ZP1u3HBlRvQ03L-67" style="edgeStyle=orthogonalEdgeStyle;rounded=0;orthogonalLoop=1;jettySize=auto;html=1;entryX=0.5;entryY=1;entryDx=0;entryDy=0;" edge="1" parent="MXst-7ZP1u3HBlRvQ03L-60" target="MXst-7ZP1u3HBlRvQ03L-31">
          <mxGeometry relative="1" as="geometry">
            <mxPoint x="380" y="170" as="sourcePoint" />
            <mxPoint x="40.03000000000018" y="225.1669230769231" as="targetPoint" />
            <Array as="points">
              <mxPoint x="387" y="170" />
              <mxPoint x="387" y="200" />
              <mxPoint x="40" y="200" />
              <mxPoint x="40" y="185" />
            </Array>
          </mxGeometry>
        </mxCell>
        <mxCell id="MXst-7ZP1u3HBlRvQ03L-69" value="" style="group" vertex="1" connectable="0" parent="MXst-7ZP1u3HBlRvQ03L-60">
          <mxGeometry x="5" y="50" width="77.8" height="135" as="geometry" />
        </mxCell>
        <mxCell id="MXst-7ZP1u3HBlRvQ03L-30" value="" style="sketch=0;aspect=fixed;pointerEvents=1;shadow=0;dashed=0;html=1;strokeColor=none;labelPosition=center;verticalLabelPosition=bottom;verticalAlign=top;align=center;fillColor=#00188D;shape=mxgraph.mscae.enterprise.domain_controller" vertex="1" parent="MXst-7ZP1u3HBlRvQ03L-69">
          <mxGeometry x="5" width="72.8" height="101.11" as="geometry" />
        </mxCell>
        <mxCell id="MXst-7ZP1u3HBlRvQ03L-31" value="&lt;font style=&quot;font-size: 18px;&quot;&gt;&lt;b style=&quot;&quot;&gt;&lt;i style=&quot;&quot;&gt;DNS&lt;/i&gt;&lt;/b&gt;&lt;/font&gt;" style="text;strokeColor=none;align=center;fillColor=none;html=1;verticalAlign=middle;whiteSpace=wrap;rounded=0;" vertex="1" parent="MXst-7ZP1u3HBlRvQ03L-69">
          <mxGeometry y="95" width="62.8" height="40" as="geometry" />
        </mxCell>
        <mxCell id="MXst-7ZP1u3HBlRvQ03L-71" value="&lt;font style=&quot;font-size: 18px;&quot;&gt;ARP&lt;/font&gt;" style="rounded=0;whiteSpace=wrap;html=1;" vertex="1" parent="MXst-7ZP1u3HBlRvQ03L-60">
          <mxGeometry x="290" y="100" width="40" height="70" as="geometry" />
        </mxCell>
        <mxCell id="MXst-7ZP1u3HBlRvQ03L-70" value="" style="endArrow=classic;html=1;rounded=0;exitX=0;exitY=0.5;exitDx=0;exitDy=0;entryX=0.35;entryY=0;entryDx=0;entryDy=0;entryPerimeter=0;" edge="1" parent="1" source="MXst-7ZP1u3HBlRvQ03L-60" target="MXst-7ZP1u3HBlRvQ03L-27">
          <mxGeometry width="50" height="50" relative="1" as="geometry">
            <mxPoint x="220" y="290" as="sourcePoint" />
            <mxPoint x="270" y="240" as="targetPoint" />
            <Array as="points">
              <mxPoint x="-462" y="105" />
            </Array>
          </mxGeometry>
        </mxCell>
        <mxCell id="MXst-7ZP1u3HBlRvQ03L-75" value="" style="shape=flexArrow;endArrow=classic;html=1;rounded=0;exitX=0.98;exitY=0.51;exitDx=0;exitDy=0;exitPerimeter=0;" edge="1" parent="1" source="MXst-7ZP1u3HBlRvQ03L-27">
          <mxGeometry width="50" height="50" relative="1" as="geometry">
            <mxPoint x="-300" y="330" as="sourcePoint" />
            <mxPoint x="150" y="370" as="targetPoint" />
          </mxGeometry>
        </mxCell>
        <mxCell id="MXst-7ZP1u3HBlRvQ03L-82" value="" style="group;movable=0;resizable=0;rotatable=0;deletable=0;editable=0;locked=1;connectable=0;" vertex="1" connectable="0" parent="1">
          <mxGeometry x="190" y="140" width="120" height="167.5" as="geometry" />
        </mxCell>
        <mxCell id="MXst-7ZP1u3HBlRvQ03L-92" value="HTML page" style="text;strokeColor=none;align=center;fillColor=none;html=1;verticalAlign=middle;whiteSpace=wrap;rounded=0;rotation=-30;" vertex="1" parent="1">
          <mxGeometry x="190" y="294" width="120" height="30" as="geometry" />
        </mxCell>
        <mxCell id="MXst-7ZP1u3HBlRvQ03L-102" value="" style="shape=flexArrow;endArrow=classic;html=1;rounded=0;" edge="1" parent="1">
          <mxGeometry width="50" height="50" relative="1" as="geometry">
            <mxPoint x="460" y="460" as="sourcePoint" />
            <mxPoint x="800" y="240" as="targetPoint" />
            <Array as="points">
              <mxPoint x="690" y="360" />
            </Array>
          </mxGeometry>
        </mxCell>
        <mxCell id="MXst-7ZP1u3HBlRvQ03L-108" value="" style="group" vertex="1" connectable="0" parent="1">
          <mxGeometry x="-490" y="324" width="90" height="120" as="geometry" />
        </mxCell>
        <mxCell id="MXst-7ZP1u3HBlRvQ03L-27" value="" style="points=[[0.35,0,0],[0.98,0.51,0],[1,0.71,0],[0.67,1,0],[0,0.795,0],[0,0.65,0]];verticalLabelPosition=bottom;sketch=0;html=1;verticalAlign=top;aspect=fixed;align=center;pointerEvents=1;shape=mxgraph.cisco19.user;fillColor=#005073;strokeColor=none;" vertex="1" parent="MXst-7ZP1u3HBlRvQ03L-108">
          <mxGeometry width="90" height="90" as="geometry" />
        </mxCell>
        <mxCell id="MXst-7ZP1u3HBlRvQ03L-28" value="&lt;font style=&quot;font-size: 36px;&quot;&gt;&amp;nbsp;user&amp;nbsp;&lt;/font&gt;" style="text;strokeColor=none;align=center;fillColor=none;html=1;verticalAlign=middle;whiteSpace=wrap;rounded=0;" vertex="1" parent="MXst-7ZP1u3HBlRvQ03L-108">
          <mxGeometry x="15" y="90" width="60" height="30" as="geometry" />
        </mxCell>
      </root>
    </mxGraphModel>
  </diagram>
</mxfile>
